<svg width="1584" height="185" viewBox="0 0 1584 185" fill="none" xmlns="http://www.w3.org/2000/svg">
<path d="M71.4801 45.6364V63.392H0.8125V45.6364H71.4801ZM21.4091 12.9659H42.3608V142.938C42.3608 148.856 43.219 153.295 44.9354 156.254C46.7109 159.154 48.96 161.107 51.6825 162.114C54.4643 163.061 57.3939 163.534 60.4716 163.534C62.7798 163.534 64.6738 163.416 66.1534 163.179C67.6331 162.883 68.8168 162.646 69.7045 162.469L73.9659 181.29C72.5455 181.822 70.5627 182.355 68.0178 182.888C65.4728 183.48 62.2472 183.776 58.3409 183.776C52.4224 183.776 46.6222 182.503 40.9403 179.958C35.3177 177.413 30.642 173.536 26.9134 168.328C23.2438 163.12 21.4091 156.55 21.4091 148.619V12.9659ZM126.878 99.9688V182H105.926V0.181813H126.878V66.9432H128.653C131.849 59.9001 136.643 54.3071 143.036 50.1641C149.487 45.9619 158.069 43.8608 168.781 43.8608C178.073 43.8608 186.211 45.7251 193.195 49.4538C200.179 53.1233 205.595 58.7756 209.442 66.4105C213.348 73.9863 215.301 83.6335 215.301 95.3523V182H194.349V96.7727C194.349 85.9418 191.538 77.567 185.915 71.6484C180.352 65.6707 172.628 62.6818 162.744 62.6818C155.879 62.6818 149.723 64.1319 144.278 67.032C138.893 69.9321 134.631 74.1638 131.494 79.7273C128.417 85.2907 126.878 92.0379 126.878 99.9688ZM310.805 184.841C297.665 184.841 286.331 181.941 276.802 176.141C267.333 170.281 260.023 162.114 254.874 151.638C249.784 141.103 247.239 128.851 247.239 114.884C247.239 100.916 249.784 88.6051 254.874 77.9517C260.023 67.2391 267.185 58.8939 276.358 52.9162C285.591 46.8793 296.363 43.8608 308.674 43.8608C315.776 43.8608 322.79 45.0445 329.714 47.4119C336.639 49.7793 342.942 53.6264 348.624 58.9531C354.306 64.2206 358.834 71.2045 362.207 79.9048C365.581 88.6051 367.268 99.3177 367.268 112.043V120.92H262.154V102.81H345.961C345.961 95.1155 344.422 88.25 341.344 82.2131C338.326 76.1761 334.005 71.4117 328.383 67.9197C322.819 64.4278 316.25 62.6818 308.674 62.6818C300.329 62.6818 293.108 64.7533 287.012 68.8963C280.975 72.9801 276.329 78.3068 273.074 84.8764C269.818 91.446 268.191 98.4891 268.191 106.006V118.08C268.191 128.378 269.966 137.108 273.518 144.269C277.128 151.371 282.129 156.787 288.521 160.516C294.913 164.185 302.341 166.02 310.805 166.02C316.309 166.02 321.28 165.25 325.719 163.712C330.217 162.114 334.094 159.746 337.349 156.609C340.604 153.413 343.12 149.448 344.895 144.713L365.137 150.395C363.006 157.26 359.425 163.297 354.395 168.506C349.364 173.655 343.149 177.679 335.751 180.58C328.353 183.42 320.037 184.841 310.805 184.841ZM545.401 124.649V45.6364H577.539V182H546.378V157.763H544.958C541.88 165.398 536.82 171.643 529.776 176.496C522.793 181.349 514.181 183.776 503.942 183.776C495.005 183.776 487.104 181.793 480.238 177.827C473.432 173.803 468.105 167.973 464.258 160.338C460.411 152.644 458.487 143.352 458.487 132.462V45.6364H490.625V127.49C490.625 136.131 492.993 142.997 497.727 148.087C502.462 153.177 508.677 155.722 516.371 155.722C521.106 155.722 525.693 154.567 530.132 152.259C534.57 149.951 538.21 146.518 541.051 141.961C543.951 137.344 545.401 131.574 545.401 124.649ZM642.725 102.099V182H610.587V45.6364H641.304V68.8075H642.902C646.039 61.1726 651.04 55.1061 657.906 50.608C664.831 46.1098 673.383 43.8608 683.563 43.8608C692.973 43.8608 701.171 45.8731 708.154 49.8977C715.198 53.9223 720.643 59.7521 724.49 67.3871C728.396 75.022 730.319 84.2846 730.26 95.1747V182H698.123V100.146C698.123 91.0317 695.755 83.8999 691.02 78.7507C686.345 73.6016 679.864 71.027 671.578 71.027C665.955 71.027 660.954 72.2699 656.574 74.7557C652.254 77.1823 648.85 80.7038 646.365 85.3203C643.938 89.9368 642.725 95.5298 642.725 102.099ZM764.351 182V0.181813H796.489V68.1861H797.821C799.478 64.8717 801.816 61.3501 804.834 57.6214C807.853 53.8336 811.936 50.6079 817.086 47.9446C822.235 45.2221 828.804 43.8608 836.794 43.8608C847.329 43.8608 856.829 46.5537 865.292 51.9396C873.815 57.2663 880.562 65.1676 885.534 75.6435C890.565 86.0601 893.08 98.8442 893.08 113.996C893.08 128.97 890.624 141.695 885.711 152.17C880.799 162.646 874.111 170.636 865.647 176.141C857.184 181.645 847.596 184.397 836.883 184.397C829.071 184.397 822.59 183.095 817.441 180.491C812.292 177.887 808.149 174.75 805.012 171.08C801.934 167.352 799.537 163.83 797.821 160.516H795.956V182H764.351ZM795.868 113.818C795.868 122.637 797.11 130.361 799.596 136.989C802.141 143.618 805.781 148.797 810.516 152.526C815.31 156.195 821.11 158.03 827.917 158.03C835.019 158.03 840.967 156.136 845.761 152.348C850.555 148.501 854.165 143.263 856.592 136.634C859.078 129.946 860.321 122.341 860.321 113.818C860.321 105.355 859.107 97.8381 856.681 91.2685C854.254 84.6989 850.644 79.5497 845.85 75.821C841.056 72.0923 835.078 70.228 827.917 70.228C821.051 70.228 815.221 72.0331 810.427 75.6435C805.633 79.2538 801.993 84.3142 799.507 90.8246C797.081 97.335 795.868 105 795.868 113.818ZM920.401 182V45.6364H951.563V68.3636H952.983C955.469 60.492 959.73 54.4254 965.767 50.1641C971.863 45.8435 978.818 43.6832 986.63 43.6832C988.406 43.6832 990.388 43.772 992.578 43.9496C994.827 44.0679 996.692 44.2751 998.171 44.571V74.1342C996.81 73.6607 994.65 73.2464 991.691 72.8913C988.79 72.477 985.979 72.2699 983.257 72.2699C977.397 72.2699 972.13 73.5424 967.454 76.0874C962.838 78.5731 959.198 82.0355 956.534 86.4744C953.871 90.9134 952.539 96.0329 952.539 101.833V182H920.401ZM1073.39 184.663C1060.07 184.663 1048.53 181.734 1038.77 175.874C1029 170.015 1021.42 161.818 1016.04 151.283C1010.71 140.748 1008.05 128.437 1008.05 114.351C1008.05 100.265 1010.71 87.9245 1016.04 77.3303C1021.42 66.736 1029 58.5092 1038.77 52.6499C1048.53 46.7905 1060.07 43.8608 1073.39 43.8608C1086.71 43.8608 1098.25 46.7905 1108.01 52.6499C1117.78 58.5092 1125.32 66.736 1130.65 77.3303C1136.04 87.9245 1138.73 100.265 1138.73 114.351C1138.73 128.437 1136.04 140.748 1130.65 151.283C1125.32 161.818 1117.78 170.015 1108.01 175.874C1098.25 181.734 1086.71 184.663 1073.39 184.663ZM1073.57 158.918C1080.79 158.918 1086.82 156.935 1091.68 152.969C1096.53 148.945 1100.14 143.559 1102.51 136.812C1104.93 130.065 1106.15 122.548 1106.15 114.262C1106.15 105.917 1104.93 98.3707 1102.51 91.6236C1100.14 84.8172 1096.53 79.4018 1091.68 75.3771C1086.82 71.3525 1080.79 69.3402 1073.57 69.3402C1066.17 69.3402 1060.01 71.3525 1055.1 75.3771C1050.25 79.4018 1046.61 84.8172 1044.18 91.6236C1041.81 98.3707 1040.63 105.917 1040.63 114.262C1040.63 122.548 1041.81 130.065 1044.18 136.812C1046.61 143.559 1050.25 148.945 1055.1 152.969C1060.01 156.935 1066.17 158.918 1073.57 158.918ZM1195.3 139.209L1195.22 100.413H1200.36L1249.37 45.6364H1286.92L1226.64 112.753H1219.98L1195.3 139.209ZM1166.01 182V0.181813H1198.14V182H1166.01ZM1251.59 182L1207.2 119.944L1228.86 97.3054L1290.03 182H1251.59ZM1363.09 184.663C1349.42 184.663 1337.62 181.822 1327.67 176.141C1317.79 170.4 1310.18 162.291 1304.86 151.815C1299.53 141.28 1296.87 128.881 1296.87 114.617C1296.87 100.59 1299.53 88.2796 1304.86 77.6854C1310.24 67.032 1317.76 58.746 1327.41 52.8274C1337.05 46.8497 1348.39 43.8608 1361.41 43.8608C1369.81 43.8608 1377.74 45.2221 1385.2 47.9446C1392.72 50.6079 1399.35 54.7509 1405.09 60.3736C1410.89 65.9962 1415.44 73.1577 1418.76 81.858C1422.07 90.4991 1423.73 100.797 1423.73 112.753V122.607H1311.96V100.945H1392.92C1392.87 94.79 1391.53 89.3153 1388.93 84.5213C1386.33 79.6681 1382.69 75.8506 1378.01 73.0689C1373.39 70.2872 1368.01 68.8963 1361.85 68.8963C1355.28 68.8963 1349.51 70.4943 1344.54 73.6903C1339.57 76.8272 1335.69 80.9702 1332.91 86.1193C1330.19 91.2093 1328.8 96.8023 1328.74 102.898V121.808C1328.74 129.739 1330.19 136.545 1333.09 142.227C1335.99 147.85 1340.04 152.17 1345.25 155.189C1350.46 158.148 1356.55 159.628 1363.54 159.628C1368.21 159.628 1372.45 158.977 1376.23 157.675C1380.02 156.313 1383.31 154.331 1386.09 151.727C1388.87 149.122 1390.97 145.897 1392.39 142.05L1422.4 145.423C1420.51 153.354 1416.89 160.279 1411.57 166.197C1406.3 172.057 1399.55 176.614 1391.33 179.869C1383.1 183.065 1373.69 184.663 1363.09 184.663ZM1450.92 182V45.6364H1482.08V68.3636H1483.5C1485.99 60.492 1490.25 54.4254 1496.28 50.1641C1502.38 45.8435 1509.34 43.6832 1517.15 43.6832C1518.92 43.6832 1520.91 43.772 1523.1 43.9496C1525.34 44.0679 1527.21 44.2751 1528.69 44.571V74.1342C1527.33 73.6607 1525.17 73.2464 1522.21 72.8913C1519.31 72.477 1516.5 72.2699 1513.77 72.2699C1507.91 72.2699 1502.65 73.5424 1497.97 76.0874C1493.36 78.5731 1489.72 82.0355 1487.05 86.4744C1484.39 90.9134 1483.06 96.0329 1483.06 101.833V182H1450.92ZM1567.97 183.42C1563.59 183.42 1559.84 181.852 1556.7 178.715C1553.56 175.578 1551.99 171.82 1551.99 167.44C1551.99 163.061 1553.56 159.302 1556.7 156.165C1559.84 153.029 1563.59 151.46 1567.97 151.46C1572.35 151.46 1576.11 153.029 1579.25 156.165C1582.39 159.302 1583.95 163.061 1583.95 167.44C1583.95 170.34 1583.21 173.004 1581.73 175.43C1580.31 177.857 1578.39 179.81 1575.96 181.29C1573.6 182.71 1570.93 183.42 1567.97 183.42Z" fill="black"/>
</svg>
